<svg xmlns="http://www.w3.org/2000/svg" xmlns:xlink="http://www.w3.org/1999/xlink" width="300" zoomAndPan="magnify" viewBox="0 0 150 37.5" height="50" preserveAspectRatio="xMidYMid meet" version="1.0"><defs><filter x="0%" y="0%" width="100%" height="100%" id="d2732bbfd8"><feColorMatrix values="0 0 0 0 1 0 0 0 0 1 0 0 0 0 1 0 0 0 1 0" color-interpolation-filters="sRGB"/></filter><g/><clipPath id="4eddf4eaaf"><path d="M 22 7 L 149.011719 7 L 149.011719 30 L 22 30 Z M 22 7 " clip-rule="nonzero"/></clipPath><mask id="1cbef7b3b6"><g filter="url(#d2732bbfd8)"><rect x="-15" width="180" fill="#000000" y="-3.75" height="45" fill-opacity="0.58"/></g></mask><clipPath id="a050d6244b"><path d="M 0.300781 0.578125 L 127.011719 0.578125 L 127.011719 22.605469 L 0.300781 22.605469 Z M 0.300781 0.578125 " clip-rule="nonzero"/></clipPath><clipPath id="8d16430739"><path d="M 123 5 L 127.011719 5 L 127.011719 18 L 123 18 Z M 123 5 " clip-rule="nonzero"/></clipPath><clipPath id="ea5ff07eda"><rect x="0" width="128" y="0" height="23"/></clipPath><clipPath id="a5e7892892"><rect x="0" width="128" y="0" height="23"/></clipPath></defs><g clip-path="url(#4eddf4eaaf)"><g mask="url(#1cbef7b3b6)"><g transform="matrix(1, 0, 0, 1, 22, 7)"><g clip-path="url(#a5e7892892)"><g clip-path="url(#a050d6244b)"><g transform="matrix(1, 0, 0, 1, 0.000000000000003553, -0.000000000000001776)"><g clip-path="url(#ea5ff07eda)"><g fill="#ffffff" fill-opacity="1"><g transform="translate(0.570049, 16.946051)"><g><path d="M 8.03125 -3.109375 C 8.03125 -2.453125 7.867188 -1.875 7.546875 -1.375 C 7.222656 -0.882812 6.753906 -0.503906 6.140625 -0.234375 C 5.523438 0.0234375 4.78125 0.15625 3.90625 0.15625 C 3.507812 0.15625 3.125 0.128906 2.75 0.078125 C 2.382812 0.0234375 2.03125 -0.046875 1.6875 -0.140625 C 1.351562 -0.242188 1.03125 -0.367188 0.71875 -0.515625 L 0.71875 -2.734375 C 1.25 -2.492188 1.800781 -2.28125 2.375 -2.09375 C 2.945312 -1.90625 3.515625 -1.8125 4.078125 -1.8125 C 4.472656 -1.8125 4.785156 -1.863281 5.015625 -1.96875 C 5.253906 -2.070312 5.425781 -2.210938 5.53125 -2.390625 C 5.644531 -2.566406 5.703125 -2.769531 5.703125 -3 C 5.703125 -3.28125 5.609375 -3.519531 5.421875 -3.71875 C 5.234375 -3.914062 4.972656 -4.101562 4.640625 -4.28125 C 4.304688 -4.457031 3.929688 -4.644531 3.515625 -4.84375 C 3.253906 -4.96875 2.96875 -5.117188 2.65625 -5.296875 C 2.351562 -5.472656 2.0625 -5.6875 1.78125 -5.9375 C 1.507812 -6.195312 1.285156 -6.507812 1.109375 -6.875 C 0.941406 -7.238281 0.859375 -7.675781 0.859375 -8.1875 C 0.859375 -8.851562 1.007812 -9.425781 1.3125 -9.90625 C 1.613281 -10.382812 2.050781 -10.75 2.625 -11 C 3.195312 -11.25 3.875 -11.375 4.65625 -11.375 C 5.238281 -11.375 5.789062 -11.304688 6.3125 -11.171875 C 6.84375 -11.035156 7.398438 -10.84375 7.984375 -10.59375 L 7.21875 -8.734375 C 6.695312 -8.953125 6.234375 -9.117188 5.828125 -9.234375 C 5.421875 -9.347656 5.003906 -9.40625 4.578125 -9.40625 C 4.273438 -9.40625 4.019531 -9.359375 3.8125 -9.265625 C 3.601562 -9.171875 3.441406 -9.035156 3.328125 -8.859375 C 3.222656 -8.691406 3.171875 -8.492188 3.171875 -8.265625 C 3.171875 -7.992188 3.25 -7.769531 3.40625 -7.59375 C 3.5625 -7.414062 3.796875 -7.238281 4.109375 -7.0625 C 4.429688 -6.894531 4.828125 -6.703125 5.296875 -6.484375 C 5.867188 -6.210938 6.359375 -5.925781 6.765625 -5.625 C 7.171875 -5.332031 7.484375 -4.988281 7.703125 -4.59375 C 7.921875 -4.195312 8.03125 -3.703125 8.03125 -3.109375 Z M 8.03125 -3.109375 "/></g></g></g><g fill="#ffffff" fill-opacity="1"><g transform="translate(9.699374, 16.946051)"><g><path d="M 4.84375 -1.71875 C 5.101562 -1.71875 5.351562 -1.738281 5.59375 -1.78125 C 5.832031 -1.832031 6.070312 -1.898438 6.3125 -1.984375 L 6.3125 -0.234375 C 6.0625 -0.117188 5.75 -0.0234375 5.375 0.046875 C 5.007812 0.117188 4.609375 0.15625 4.171875 0.15625 C 3.660156 0.15625 3.203125 0.0703125 2.796875 -0.09375 C 2.390625 -0.257812 2.066406 -0.546875 1.828125 -0.953125 C 1.597656 -1.367188 1.484375 -1.945312 1.484375 -2.6875 L 1.484375 -6.828125 L 0.359375 -6.828125 L 0.359375 -7.8125 L 1.65625 -8.59375 L 2.328125 -10.40625 L 3.828125 -10.40625 L 3.828125 -8.578125 L 6.21875 -8.578125 L 6.21875 -6.828125 L 3.828125 -6.828125 L 3.828125 -2.6875 C 3.828125 -2.351562 3.914062 -2.109375 4.09375 -1.953125 C 4.28125 -1.796875 4.53125 -1.71875 4.84375 -1.71875 Z M 4.84375 -1.71875 "/></g></g></g><g fill="#ffffff" fill-opacity="1"><g transform="translate(16.994334, 16.946051)"><g><path d="M 9.03125 -4.3125 C 9.03125 -3.59375 8.929688 -2.957031 8.734375 -2.40625 C 8.546875 -1.851562 8.269531 -1.382812 7.90625 -1 C 7.539062 -0.625 7.097656 -0.335938 6.578125 -0.140625 C 6.066406 0.0546875 5.488281 0.15625 4.84375 0.15625 C 4.238281 0.15625 3.679688 0.0546875 3.171875 -0.140625 C 2.671875 -0.335938 2.234375 -0.625 1.859375 -1 C 1.492188 -1.382812 1.207031 -1.851562 1 -2.40625 C 0.800781 -2.957031 0.703125 -3.59375 0.703125 -4.3125 C 0.703125 -5.257812 0.867188 -6.0625 1.203125 -6.71875 C 1.546875 -7.382812 2.03125 -7.882812 2.65625 -8.21875 C 3.28125 -8.5625 4.023438 -8.734375 4.890625 -8.734375 C 5.691406 -8.734375 6.398438 -8.5625 7.015625 -8.21875 C 7.640625 -7.882812 8.128906 -7.382812 8.484375 -6.71875 C 8.847656 -6.0625 9.03125 -5.257812 9.03125 -4.3125 Z M 3.09375 -4.3125 C 3.09375 -3.75 3.15625 -3.273438 3.28125 -2.890625 C 3.40625 -2.503906 3.597656 -2.210938 3.859375 -2.015625 C 4.117188 -1.828125 4.457031 -1.734375 4.875 -1.734375 C 5.289062 -1.734375 5.625 -1.828125 5.875 -2.015625 C 6.132812 -2.210938 6.320312 -2.503906 6.4375 -2.890625 C 6.5625 -3.273438 6.625 -3.75 6.625 -4.3125 C 6.625 -4.875 6.5625 -5.34375 6.4375 -5.71875 C 6.320312 -6.09375 6.132812 -6.375 5.875 -6.5625 C 5.613281 -6.757812 5.273438 -6.859375 4.859375 -6.859375 C 4.242188 -6.859375 3.796875 -6.644531 3.515625 -6.21875 C 3.234375 -5.789062 3.09375 -5.15625 3.09375 -4.3125 Z M 3.09375 -4.3125 "/></g></g></g><g fill="#ffffff" fill-opacity="1"><g transform="translate(27.198188, 16.946051)"><g><path d="M 6.015625 -8.734375 C 6.128906 -8.734375 6.265625 -8.726562 6.421875 -8.71875 C 6.578125 -8.707031 6.707031 -8.691406 6.8125 -8.671875 L 6.625 -6.484375 C 6.550781 -6.503906 6.441406 -6.519531 6.296875 -6.53125 C 6.160156 -6.539062 6.039062 -6.546875 5.9375 -6.546875 C 5.632812 -6.546875 5.34375 -6.507812 5.0625 -6.4375 C 4.78125 -6.363281 4.523438 -6.238281 4.296875 -6.0625 C 4.066406 -5.894531 3.882812 -5.671875 3.75 -5.390625 C 3.625 -5.109375 3.5625 -4.765625 3.5625 -4.359375 L 3.5625 0 L 1.234375 0 L 1.234375 -8.578125 L 3 -8.578125 L 3.34375 -7.140625 L 3.46875 -7.140625 C 3.632812 -7.429688 3.84375 -7.695312 4.09375 -7.9375 C 4.34375 -8.175781 4.628906 -8.367188 4.953125 -8.515625 C 5.285156 -8.660156 5.640625 -8.734375 6.015625 -8.734375 Z M 6.015625 -8.734375 "/></g></g></g><g fill="#ffffff" fill-opacity="1"><g transform="translate(34.807824, 16.946051)"><g><path d="M 0 -8.578125 L 2.5625 -8.578125 L 4.1875 -3.75 C 4.238281 -3.59375 4.28125 -3.4375 4.3125 -3.28125 C 4.34375 -3.125 4.367188 -2.960938 4.390625 -2.796875 C 4.421875 -2.628906 4.445312 -2.453125 4.46875 -2.265625 L 4.515625 -2.265625 C 4.546875 -2.535156 4.585938 -2.789062 4.640625 -3.03125 C 4.691406 -3.28125 4.757812 -3.519531 4.84375 -3.75 L 6.4375 -8.578125 L 8.9375 -8.578125 L 5.3125 1.09375 C 5.09375 1.6875 4.804688 2.179688 4.453125 2.578125 C 4.097656 2.972656 3.691406 3.269531 3.234375 3.46875 C 2.773438 3.675781 2.273438 3.78125 1.734375 3.78125 C 1.460938 3.78125 1.226562 3.765625 1.03125 3.734375 C 0.84375 3.703125 0.675781 3.671875 0.53125 3.640625 L 0.53125 1.78125 C 0.644531 1.8125 0.78125 1.835938 0.9375 1.859375 C 1.101562 1.878906 1.273438 1.890625 1.453125 1.890625 C 1.785156 1.890625 2.066406 1.816406 2.296875 1.671875 C 2.535156 1.535156 2.734375 1.351562 2.890625 1.125 C 3.046875 0.894531 3.171875 0.640625 3.265625 0.359375 L 3.40625 -0.0625 Z M 0 -8.578125 "/></g></g></g><g fill="#ffffff" fill-opacity="1"><g transform="translate(44.221139, 16.946051)"><g/></g></g><g fill="#ffffff" fill-opacity="1"><g transform="translate(48.776043, 16.946051)"><g><path d="M 3.734375 3.78125 C 2.535156 3.78125 1.617188 3.570312 0.984375 3.15625 C 0.359375 2.738281 0.046875 2.148438 0.046875 1.390625 C 0.046875 0.878906 0.207031 0.445312 0.53125 0.09375 C 0.851562 -0.25 1.328125 -0.492188 1.953125 -0.640625 C 1.710938 -0.742188 1.5 -0.910156 1.3125 -1.140625 C 1.132812 -1.378906 1.046875 -1.628906 1.046875 -1.890625 C 1.046875 -2.210938 1.140625 -2.484375 1.328125 -2.703125 C 1.523438 -2.921875 1.800781 -3.132812 2.15625 -3.34375 C 1.707031 -3.539062 1.347656 -3.851562 1.078125 -4.28125 C 0.816406 -4.707031 0.6875 -5.210938 0.6875 -5.796875 C 0.6875 -6.421875 0.820312 -6.953125 1.09375 -7.390625 C 1.375 -7.828125 1.773438 -8.160156 2.296875 -8.390625 C 2.816406 -8.617188 3.457031 -8.734375 4.21875 -8.734375 C 4.375 -8.734375 4.554688 -8.722656 4.765625 -8.703125 C 4.972656 -8.691406 5.164062 -8.671875 5.34375 -8.640625 C 5.519531 -8.617188 5.640625 -8.597656 5.703125 -8.578125 L 8.703125 -8.578125 L 8.703125 -7.390625 L 7.359375 -7.046875 C 7.472656 -6.859375 7.5625 -6.65625 7.625 -6.4375 C 7.6875 -6.21875 7.71875 -5.988281 7.71875 -5.75 C 7.71875 -4.832031 7.394531 -4.113281 6.75 -3.59375 C 6.113281 -3.082031 5.222656 -2.828125 4.078125 -2.828125 C 3.804688 -2.847656 3.550781 -2.867188 3.3125 -2.890625 C 3.195312 -2.796875 3.109375 -2.695312 3.046875 -2.59375 C 2.984375 -2.5 2.953125 -2.394531 2.953125 -2.28125 C 2.953125 -2.164062 3 -2.070312 3.09375 -2 C 3.1875 -1.925781 3.328125 -1.867188 3.515625 -1.828125 C 3.710938 -1.785156 3.957031 -1.765625 4.25 -1.765625 L 5.703125 -1.765625 C 6.640625 -1.765625 7.351562 -1.5625 7.84375 -1.15625 C 8.34375 -0.757812 8.59375 -0.171875 8.59375 0.609375 C 8.59375 1.617188 8.175781 2.398438 7.34375 2.953125 C 6.507812 3.503906 5.304688 3.78125 3.734375 3.78125 Z M 3.84375 2.25 C 4.394531 2.25 4.867188 2.195312 5.265625 2.09375 C 5.671875 1.988281 5.984375 1.835938 6.203125 1.640625 C 6.421875 1.453125 6.53125 1.222656 6.53125 0.953125 C 6.53125 0.742188 6.460938 0.578125 6.328125 0.453125 C 6.203125 0.328125 6.015625 0.238281 5.765625 0.1875 C 5.515625 0.132812 5.191406 0.109375 4.796875 0.109375 L 3.578125 0.109375 C 3.296875 0.109375 3.039062 0.15625 2.8125 0.25 C 2.582031 0.34375 2.398438 0.46875 2.265625 0.625 C 2.140625 0.789062 2.078125 0.988281 2.078125 1.21875 C 2.078125 1.539062 2.226562 1.789062 2.53125 1.96875 C 2.84375 2.15625 3.28125 2.25 3.84375 2.25 Z M 4.21875 -4.265625 C 4.65625 -4.265625 4.972656 -4.398438 5.171875 -4.671875 C 5.378906 -4.941406 5.484375 -5.304688 5.484375 -5.765625 C 5.484375 -6.285156 5.375 -6.675781 5.15625 -6.9375 C 4.945312 -7.195312 4.632812 -7.328125 4.21875 -7.328125 C 3.78125 -7.328125 3.453125 -7.195312 3.234375 -6.9375 C 3.023438 -6.675781 2.921875 -6.285156 2.921875 -5.765625 C 2.921875 -5.304688 3.023438 -4.941406 3.234375 -4.671875 C 3.453125 -4.398438 3.78125 -4.265625 4.21875 -4.265625 Z M 4.21875 -4.265625 "/></g></g></g><g fill="#ffffff" fill-opacity="1"><g transform="translate(58.127957, 16.946051)"><g><path d="M 4.765625 -8.734375 C 5.554688 -8.734375 6.238281 -8.582031 6.8125 -8.28125 C 7.382812 -7.976562 7.828125 -7.535156 8.140625 -6.953125 C 8.453125 -6.378906 8.609375 -5.675781 8.609375 -4.84375 L 8.609375 -3.703125 L 3.078125 -3.703125 C 3.097656 -3.046875 3.296875 -2.53125 3.671875 -2.15625 C 4.046875 -1.78125 4.5625 -1.59375 5.21875 -1.59375 C 5.769531 -1.59375 6.269531 -1.644531 6.71875 -1.75 C 7.175781 -1.863281 7.644531 -2.035156 8.125 -2.265625 L 8.125 -0.453125 C 7.695312 -0.242188 7.253906 -0.09375 6.796875 0 C 6.335938 0.101562 5.773438 0.15625 5.109375 0.15625 C 4.253906 0.15625 3.492188 0 2.828125 -0.3125 C 2.160156 -0.632812 1.640625 -1.117188 1.265625 -1.765625 C 0.890625 -2.421875 0.703125 -3.242188 0.703125 -4.234375 C 0.703125 -5.234375 0.875 -6.066406 1.21875 -6.734375 C 1.5625 -7.398438 2.035156 -7.898438 2.640625 -8.234375 C 3.242188 -8.566406 3.953125 -8.734375 4.765625 -8.734375 Z M 4.78125 -7.078125 C 4.320312 -7.078125 3.941406 -6.929688 3.640625 -6.640625 C 3.347656 -6.347656 3.175781 -5.890625 3.125 -5.265625 L 6.421875 -5.265625 C 6.410156 -5.609375 6.34375 -5.914062 6.21875 -6.1875 C 6.101562 -6.457031 5.925781 -6.671875 5.6875 -6.828125 C 5.445312 -6.992188 5.144531 -7.078125 4.78125 -7.078125 Z M 4.78125 -7.078125 "/></g></g></g><g fill="#ffffff" fill-opacity="1"><g transform="translate(67.88665, 16.946051)"><g><path d="M 6.109375 -8.734375 C 7.015625 -8.734375 7.75 -8.484375 8.3125 -7.984375 C 8.875 -7.492188 9.15625 -6.695312 9.15625 -5.59375 L 9.15625 0 L 6.8125 0 L 6.8125 -5.015625 C 6.8125 -5.628906 6.695312 -6.09375 6.46875 -6.40625 C 6.25 -6.71875 5.898438 -6.875 5.421875 -6.875 C 4.710938 -6.875 4.222656 -6.628906 3.953125 -6.140625 C 3.691406 -5.648438 3.5625 -4.945312 3.5625 -4.03125 L 3.5625 0 L 1.234375 0 L 1.234375 -8.578125 L 3.015625 -8.578125 L 3.328125 -7.484375 L 3.46875 -7.484375 C 3.644531 -7.773438 3.867188 -8.015625 4.140625 -8.203125 C 4.421875 -8.390625 4.726562 -8.523438 5.0625 -8.609375 C 5.394531 -8.691406 5.742188 -8.734375 6.109375 -8.734375 Z M 6.109375 -8.734375 "/></g></g></g><g fill="#ffffff" fill-opacity="1"><g transform="translate(78.68917, 16.946051)"><g><path d="M 4.765625 -8.734375 C 5.554688 -8.734375 6.238281 -8.582031 6.8125 -8.28125 C 7.382812 -7.976562 7.828125 -7.535156 8.140625 -6.953125 C 8.453125 -6.378906 8.609375 -5.675781 8.609375 -4.84375 L 8.609375 -3.703125 L 3.078125 -3.703125 C 3.097656 -3.046875 3.296875 -2.53125 3.671875 -2.15625 C 4.046875 -1.78125 4.5625 -1.59375 5.21875 -1.59375 C 5.769531 -1.59375 6.269531 -1.644531 6.71875 -1.75 C 7.175781 -1.863281 7.644531 -2.035156 8.125 -2.265625 L 8.125 -0.453125 C 7.695312 -0.242188 7.253906 -0.09375 6.796875 0 C 6.335938 0.101562 5.773438 0.15625 5.109375 0.15625 C 4.253906 0.15625 3.492188 0 2.828125 -0.3125 C 2.160156 -0.632812 1.640625 -1.117188 1.265625 -1.765625 C 0.890625 -2.421875 0.703125 -3.242188 0.703125 -4.234375 C 0.703125 -5.234375 0.875 -6.066406 1.21875 -6.734375 C 1.5625 -7.398438 2.035156 -7.898438 2.640625 -8.234375 C 3.242188 -8.566406 3.953125 -8.734375 4.765625 -8.734375 Z M 4.78125 -7.078125 C 4.320312 -7.078125 3.941406 -6.929688 3.640625 -6.640625 C 3.347656 -6.347656 3.175781 -5.890625 3.125 -5.265625 L 6.421875 -5.265625 C 6.410156 -5.609375 6.34375 -5.914062 6.21875 -6.1875 C 6.101562 -6.457031 5.925781 -6.671875 5.6875 -6.828125 C 5.445312 -6.992188 5.144531 -7.078125 4.78125 -7.078125 Z M 4.78125 -7.078125 "/></g></g></g><g fill="#ffffff" fill-opacity="1"><g transform="translate(88.447862, 16.946051)"><g><path d="M 6.015625 -8.734375 C 6.128906 -8.734375 6.265625 -8.726562 6.421875 -8.71875 C 6.578125 -8.707031 6.707031 -8.691406 6.8125 -8.671875 L 6.625 -6.484375 C 6.550781 -6.503906 6.441406 -6.519531 6.296875 -6.53125 C 6.160156 -6.539062 6.039062 -6.546875 5.9375 -6.546875 C 5.632812 -6.546875 5.34375 -6.507812 5.0625 -6.4375 C 4.78125 -6.363281 4.523438 -6.238281 4.296875 -6.0625 C 4.066406 -5.894531 3.882812 -5.671875 3.75 -5.390625 C 3.625 -5.109375 3.5625 -4.765625 3.5625 -4.359375 L 3.5625 0 L 1.234375 0 L 1.234375 -8.578125 L 3 -8.578125 L 3.34375 -7.140625 L 3.46875 -7.140625 C 3.632812 -7.429688 3.84375 -7.695312 4.09375 -7.9375 C 4.34375 -8.175781 4.628906 -8.367188 4.953125 -8.515625 C 5.285156 -8.660156 5.640625 -8.734375 6.015625 -8.734375 Z M 6.015625 -8.734375 "/></g></g></g><g fill="#ffffff" fill-opacity="1"><g transform="translate(96.057498, 16.946051)"><g><path d="M 4.75 -8.75 C 5.894531 -8.75 6.773438 -8.5 7.390625 -8 C 8.003906 -7.5 8.3125 -6.738281 8.3125 -5.71875 L 8.3125 0 L 6.671875 0 L 6.21875 -1.171875 L 6.15625 -1.171875 C 5.914062 -0.859375 5.664062 -0.601562 5.40625 -0.40625 C 5.15625 -0.21875 4.863281 -0.078125 4.53125 0.015625 C 4.195312 0.109375 3.789062 0.15625 3.3125 0.15625 C 2.8125 0.15625 2.359375 0.0546875 1.953125 -0.140625 C 1.546875 -0.335938 1.226562 -0.632812 1 -1.03125 C 0.769531 -1.4375 0.65625 -1.945312 0.65625 -2.5625 C 0.65625 -3.476562 0.972656 -4.148438 1.609375 -4.578125 C 2.253906 -5.015625 3.21875 -5.253906 4.5 -5.296875 L 5.984375 -5.34375 L 5.984375 -5.71875 C 5.984375 -6.164062 5.863281 -6.492188 5.625 -6.703125 C 5.394531 -6.910156 5.070312 -7.015625 4.65625 -7.015625 C 4.238281 -7.015625 3.828125 -6.957031 3.421875 -6.84375 C 3.023438 -6.726562 2.628906 -6.582031 2.234375 -6.40625 L 1.453125 -7.984375 C 1.910156 -8.222656 2.421875 -8.410156 2.984375 -8.546875 C 3.554688 -8.679688 4.144531 -8.75 4.75 -8.75 Z M 5.984375 -3.96875 L 5.078125 -3.9375 C 4.316406 -3.925781 3.789062 -3.789062 3.5 -3.53125 C 3.207031 -3.28125 3.0625 -2.953125 3.0625 -2.546875 C 3.0625 -2.191406 3.164062 -1.9375 3.375 -1.78125 C 3.582031 -1.632812 3.859375 -1.5625 4.203125 -1.5625 C 4.703125 -1.5625 5.125 -1.707031 5.46875 -2 C 5.8125 -2.300781 5.984375 -2.722656 5.984375 -3.265625 Z M 5.984375 -3.96875 "/></g></g></g><g fill="#ffffff" fill-opacity="1"><g transform="translate(106.023428, 16.946051)"><g><path d="M 4.84375 -1.71875 C 5.101562 -1.71875 5.351562 -1.738281 5.59375 -1.78125 C 5.832031 -1.832031 6.070312 -1.898438 6.3125 -1.984375 L 6.3125 -0.234375 C 6.0625 -0.117188 5.75 -0.0234375 5.375 0.046875 C 5.007812 0.117188 4.609375 0.15625 4.171875 0.15625 C 3.660156 0.15625 3.203125 0.0703125 2.796875 -0.09375 C 2.390625 -0.257812 2.066406 -0.546875 1.828125 -0.953125 C 1.597656 -1.367188 1.484375 -1.945312 1.484375 -2.6875 L 1.484375 -6.828125 L 0.359375 -6.828125 L 0.359375 -7.8125 L 1.65625 -8.59375 L 2.328125 -10.40625 L 3.828125 -10.40625 L 3.828125 -8.578125 L 6.21875 -8.578125 L 6.21875 -6.828125 L 3.828125 -6.828125 L 3.828125 -2.6875 C 3.828125 -2.351562 3.914062 -2.109375 4.09375 -1.953125 C 4.28125 -1.796875 4.53125 -1.71875 4.84375 -1.71875 Z M 4.84375 -1.71875 "/></g></g></g><g fill="#ffffff" fill-opacity="1"><g transform="translate(113.318387, 16.946051)"><g><path d="M 4.765625 -8.734375 C 5.554688 -8.734375 6.238281 -8.582031 6.8125 -8.28125 C 7.382812 -7.976562 7.828125 -7.535156 8.140625 -6.953125 C 8.453125 -6.378906 8.609375 -5.675781 8.609375 -4.84375 L 8.609375 -3.703125 L 3.078125 -3.703125 C 3.097656 -3.046875 3.296875 -2.53125 3.671875 -2.15625 C 4.046875 -1.78125 4.5625 -1.59375 5.21875 -1.59375 C 5.769531 -1.59375 6.269531 -1.644531 6.71875 -1.75 C 7.175781 -1.863281 7.644531 -2.035156 8.125 -2.265625 L 8.125 -0.453125 C 7.695312 -0.242188 7.253906 -0.09375 6.796875 0 C 6.335938 0.101562 5.773438 0.15625 5.109375 0.15625 C 4.253906 0.15625 3.492188 0 2.828125 -0.3125 C 2.160156 -0.632812 1.640625 -1.117188 1.265625 -1.765625 C 0.890625 -2.421875 0.703125 -3.242188 0.703125 -4.234375 C 0.703125 -5.234375 0.875 -6.066406 1.21875 -6.734375 C 1.5625 -7.398438 2.035156 -7.898438 2.640625 -8.234375 C 3.242188 -8.566406 3.953125 -8.734375 4.765625 -8.734375 Z M 4.78125 -7.078125 C 4.320312 -7.078125 3.941406 -6.929688 3.640625 -6.640625 C 3.347656 -6.347656 3.175781 -5.890625 3.125 -5.265625 L 6.421875 -5.265625 C 6.410156 -5.609375 6.34375 -5.914062 6.21875 -6.1875 C 6.101562 -6.457031 5.925781 -6.671875 5.6875 -6.828125 C 5.445312 -6.992188 5.144531 -7.078125 4.78125 -7.078125 Z M 4.78125 -7.078125 "/></g></g></g><g clip-path="url(#8d16430739)"><g fill="#ffffff" fill-opacity="1"><g transform="translate(123.07708, 16.946051)"><g><path d="M 3.9375 0.15625 C 2.988281 0.15625 2.210938 -0.21875 1.609375 -0.96875 C 1.003906 -1.71875 0.703125 -2.820312 0.703125 -4.28125 C 0.703125 -5.75 1.003906 -6.859375 1.609375 -7.609375 C 2.222656 -8.359375 3.019531 -8.734375 4 -8.734375 C 4.414062 -8.734375 4.78125 -8.675781 5.09375 -8.5625 C 5.40625 -8.457031 5.671875 -8.3125 5.890625 -8.125 C 6.117188 -7.9375 6.316406 -7.722656 6.484375 -7.484375 L 6.546875 -7.484375 C 6.523438 -7.648438 6.488281 -7.890625 6.4375 -8.203125 C 6.394531 -8.523438 6.375 -8.851562 6.375 -9.1875 L 6.375 -11.9375 L 8.734375 -11.9375 L 8.734375 0 L 6.9375 0 L 6.484375 -1.109375 L 6.375 -1.109375 C 6.226562 -0.878906 6.039062 -0.664062 5.8125 -0.46875 C 5.59375 -0.28125 5.328125 -0.128906 5.015625 -0.015625 C 4.710938 0.0976562 4.351562 0.15625 3.9375 0.15625 Z M 4.765625 -1.71875 C 5.398438 -1.71875 5.847656 -1.90625 6.109375 -2.28125 C 6.378906 -2.664062 6.523438 -3.238281 6.546875 -4 L 6.546875 -4.265625 C 6.546875 -5.097656 6.414062 -5.734375 6.15625 -6.171875 C 5.894531 -6.617188 5.421875 -6.84375 4.734375 -6.84375 C 4.210938 -6.84375 3.804688 -6.617188 3.515625 -6.171875 C 3.222656 -5.722656 3.078125 -5.082031 3.078125 -4.25 C 3.078125 -3.40625 3.222656 -2.769531 3.515625 -2.34375 C 3.804688 -1.925781 4.222656 -1.71875 4.765625 -1.71875 Z M 4.765625 -1.71875 "/></g></g></g></g></g></g></g></g></g></g></g></svg>